<?xml version="1.0" encoding="UTF-8" standalone="no"?>
<svg version="1.1" xmlns="http://www.w3.org/2000/svg" xmlns:xlink="http://www.w3.org/1999/xlink">
    <symbol id="icon-factory" viewBox="0 0 96 80">
        <path fill-rule="evenodd" clip-rule="evenodd" d="M65.5386 2.66137C65.5765 2.00941 66.1165 1.5 66.7698 1.5H83.2563C83.9096 1.5 84.4496 2.00936 84.4875 2.66146L86.1378 30.9309C86.1776 31.6109 85.6585 32.1943 84.9785 32.2339C84.298 32.2732 83.7151 31.7544 83.6754 31.0746L82.8956 17.7177H67.1305L66.094 35.4729H92.5199C93.2009 35.4729 93.7532 36.0252 93.7532 36.7062V76.9196C93.7532 77.6008 93.2009 78.1531 92.5197 78.1531H2.73348C2.05226 78.1531 1.5 77.6008 1.5 76.9196V62.5905C1.5 61.9092 2.05226 61.357 2.73348 61.357C3.41471 61.357 3.96697 61.9092 3.96697 62.5905V75.6861H91.2869V37.9399H53.347C52.6658 37.9399 52.1136 37.3876 52.1136 36.7064V22.6741L28.708 37.7434C28.3288 37.9877 27.8459 38.0053 27.4496 37.7891C27.0534 37.573 26.807 37.1579 26.807 36.7064V22.6741L3.96715 37.3791V56.6973C3.96715 57.3785 3.41489 57.9308 2.73367 57.9308C2.05245 57.9308 1.50018 57.3785 1.50018 56.6973V36.7064C1.50018 36.2871 1.71329 35.8965 2.06597 35.6692L27.3724 19.3763C27.7516 19.132 28.2344 19.1144 28.6307 19.3306C29.0269 19.5466 29.2734 19.9617 29.2734 20.4132V34.4456L52.679 19.3763C53.0582 19.132 53.541 19.1144 53.9373 19.3306C54.3335 19.5466 54.58 19.9617 54.58 20.4132V35.4731H63.6231L65.5386 2.66137ZM67.9332 3.96679H82.0929L82.3468 8.31757H67.6793L67.9332 3.96679ZM67.5353 10.7844H82.4909L82.7518 15.2511H67.2746L67.5353 10.7844Z"/>
        <path fill-rule="evenodd" clip-rule="evenodd" d="M48 45.7198C48 45.0386 48.5523 44.4863 49.2335 44.4863H74.8868C75.5678 44.4863 76.1201 45.0386 76.1203 45.7199V56.4665C76.1203 57.1478 75.568 57.7 74.8868 57.7H49.2335C48.5523 57.7 48 57.1478 48 56.4665V45.7198ZM50.467 46.9531H55.9736V55.2331H50.467V46.9531ZM65.6801 46.9531H58.4404V55.2331H65.6801V46.9531ZM68.1467 46.9531H73.6533V55.2331H68.1467V46.9531Z"/>
        <path fill-rule="evenodd" clip-rule="evenodd" d="M8.78027 45.7198C8.78027 45.0386 9.33253 44.4863 10.0138 44.4863H35.6671C36.348 44.4863 36.9004 45.0386 36.9006 45.7199V56.4665C36.9006 57.1478 36.3483 57.7 35.6671 57.7H10.0138C9.33253 57.7 8.78027 57.1478 8.78027 56.4665V45.7198ZM11.2472 46.9531H16.7539V55.2331H11.2472V46.9531ZM26.4604 46.9531H19.2206V55.2331H26.4604V46.9531ZM28.927 46.9531H34.4336V55.2331H28.927V46.9531Z"/>
    </symbol>
    <symbol id="icon-award" viewBox="0 0 83 96">
        <path d="M41.3174 0.5C31.8657 0.5 23.3756 4.34394 17.2061 10.5134C11.0367 16.6828 7.19274 25.173 7.19274 34.6247C7.19274 43.5177 10.5569 51.6068 16.1637 57.6942L16.4128 57.9646L1.67588 83.4866C1.51135 83.7608 1.43933 84.1779 1.56041 84.6189C1.78813 85.2182 2.45192 85.514 3.10147 85.2815L15.3064 80.4165L17.1841 93.4746C17.2507 93.8673 17.4334 94.1772 17.7264 94.3237L17.7436 94.3322L17.76 94.3421C18.3086 94.6713 19.0665 94.4675 19.4292 93.8665L19.4311 93.8634L34.3165 68.1223L34.6657 68.1894C36.7516 68.5906 38.9957 68.8307 41.1549 68.8307C43.3948 68.8307 45.5575 68.5907 47.644 68.1894L47.9933 68.1223L62.8786 93.8634L62.8804 93.8664C63.222 94.4319 63.9829 94.6239 64.5834 94.3237C64.8764 94.1771 65.0592 93.8672 65.1257 93.4745L67.0033 80.4165L79.2082 85.2815C79.8636 85.5161 80.5335 85.2129 80.7553 84.6027L80.7864 84.5173L80.8456 84.4482C81.023 84.2412 81.0758 84.0626 81.0812 83.9213C81.0869 83.7732 81.0417 83.6244 80.959 83.4866L80.9547 83.4794L66.2221 57.9646L66.4711 57.6942C72.078 51.6068 75.4421 43.5177 75.4421 34.6247C75.4421 25.173 71.5982 16.6828 65.4287 10.5134C59.2593 4.34394 50.7691 0.5 41.3174 0.5ZM18.9349 12.3284C24.6348 6.4646 32.5649 2.9137 41.3174 2.9137C50.0705 2.9137 57.9991 6.46492 63.6975 12.1634C69.3959 17.8618 72.9471 25.7903 72.9471 34.5434C72.9471 43.2952 69.397 51.2226 63.7001 56.9208C58.0002 62.7847 50.07 66.3357 41.3174 66.3357C32.5643 66.3357 24.6358 62.7845 18.9374 57.086C13.2389 51.3876 9.68772 43.4591 9.68772 34.706C9.68772 25.9542 13.2379 18.0267 18.9349 12.3284ZM18.1896 59.6904L18.6478 60.0976C22.2529 63.3022 26.5782 65.7849 31.3826 67.2262L31.9862 67.4073L19.2549 89.5987L17.5786 78.5166C17.4594 77.8802 16.8798 77.4094 16.1626 77.4691L16.1419 77.4709H16.1211C16.1211 77.4709 16.103 77.471 16.0528 77.4898C16.0005 77.5094 15.943 77.5376 15.857 77.5806L15.8377 77.5903L5.45853 81.7045L18.1896 59.6904ZM64.4452 59.6904L77.1763 81.7045L66.7972 77.5903L66.7779 77.5806C66.6918 77.5376 66.6344 77.5094 66.5821 77.4898C66.5319 77.471 66.5138 77.4709 66.5138 77.4709H66.4687L66.4244 77.4628C65.8297 77.3547 65.179 77.79 65.0569 78.5129L65.0563 78.5161L63.38 89.5987L50.6487 67.4073L51.2523 67.2262C56.0567 65.7849 60.3819 63.3022 63.9871 60.0976L64.4452 59.6904Z"/>
        <path d="M39.8297 18.5753C39.053 19.0046 38.501 19.6325 38.2193 20.548L38.218 20.5521L35.9941 27.5658H28.8509L28.82 27.5619C28.2894 27.4956 27.7323 27.6264 27.2096 27.8505C26.7352 28.0538 26.3167 28.3963 25.9565 28.9007L25.954 28.9042C25.3918 29.6772 25.2494 30.5133 25.3926 31.3726C25.5355 32.2301 25.9586 33.0028 26.7361 33.5689L26.7378 33.5701L32.7231 37.8454L30.4368 44.7892C30.4333 44.8405 30.4245 44.9081 30.4028 44.9731C30.3841 45.0293 30.3503 45.1032 30.289 45.1732C30.203 45.5293 30.2046 45.9556 30.2711 46.4207C30.3392 46.8979 30.5447 47.3805 30.8917 47.7969L30.9023 47.8095L30.912 47.8229C31.4782 48.6014 32.2514 49.025 33.1094 49.168C33.9518 49.3084 34.8633 49.0964 35.5596 48.5393L35.5684 48.5323L41.5615 44.1659L47.5451 48.5254C48.3129 49.0837 49.1532 49.2346 50.0336 49.1647C50.8837 49.0184 51.6492 48.5953 52.211 47.8229L52.2207 47.8095L52.2313 47.7969C52.5536 47.41 52.6943 46.9544 52.8566 46.3874C52.9161 45.9547 52.9202 45.5947 52.8352 45.2033H52.8226L50.3998 37.8454L56.3852 33.5701L56.3869 33.5689C57.1454 33.0166 57.5667 32.2676 57.7195 31.4351C57.6368 30.6041 57.4056 29.6766 56.8439 28.9042L56.8414 28.9007C56.4811 28.3963 56.0626 28.0538 55.5883 27.8505C55.0655 27.6264 54.5084 27.4956 53.9779 27.5619L53.947 27.5658H46.8037L44.581 20.5557C44.302 19.7217 43.6712 19.0076 42.9584 18.5712C42.4401 18.3521 41.9488 18.2188 41.3989 18.2188C40.8456 18.2188 40.3516 18.3537 39.8297 18.5753ZM41.9937 20.8575C41.9793 20.8308 41.9623 20.8043 41.9422 20.7785C41.8546 20.6659 41.7452 20.6125 41.6688 20.587C41.5529 20.5484 41.4291 20.5506 41.403 20.5511L41.3989 20.5512H41.1918L41.0975 20.6455C40.9011 20.6832 40.7547 20.797 40.6631 20.9115C40.5842 21.0102 40.5231 21.1366 40.5012 21.2707L37.9979 29.023C37.8166 29.5641 37.3476 29.8982 36.8473 29.8982H28.6391C28.5369 29.8982 28.453 29.9235 28.4017 29.9427C28.3664 29.956 28.3337 29.9713 28.3123 29.9819C28.307 29.9823 28.3017 29.9827 28.2963 29.9832C28.2395 29.9889 28.1671 30.0036 28.0895 30.0424C28.0376 30.0683 27.9971 30.0984 27.9692 30.1217C27.9482 30.1321 27.9276 30.144 27.9075 30.1574C27.8082 30.2237 27.7482 30.3083 27.7135 30.3778C27.7065 30.3918 27.7003 30.4054 27.6949 30.4187C27.6237 30.5357 27.5978 30.653 27.5862 30.7224C27.5691 30.825 27.5692 30.9209 27.5692 30.962L27.5692 30.9672C27.5692 31.1709 27.668 31.3197 27.72 31.3891C27.7726 31.4591 27.8358 31.5222 27.8716 31.5579C27.8739 31.5602 27.8762 31.5625 27.8782 31.5646L27.9828 31.6691L34.2863 36.4991L34.3065 36.5117C34.7508 36.7894 34.922 37.2751 34.7474 37.799L34.7464 37.802L32.2021 45.5991V46.0028L32.7021 46.0037C32.2021 46.0037 32.2021 46.0042 32.2021 46.0042L32.2021 46.0057L32.2021 46.0077L32.2022 46.0119L32.2024 46.0208C32.2026 46.0269 32.2029 46.0336 32.2034 46.0406C32.2043 46.0548 32.2059 46.0708 32.2084 46.0884C32.2134 46.1236 32.2223 46.1658 32.2379 46.2126C32.2697 46.308 32.3281 46.4181 32.4298 46.5198C32.5199 46.6099 32.6304 46.6792 32.7223 46.7252C32.7985 46.7633 32.9465 46.8288 33.1085 46.8288L33.1137 46.8288C33.1548 46.8289 33.2507 46.829 33.3533 46.8119C33.4412 46.7972 33.6062 46.7594 33.7499 46.6357L40.3937 41.7743L40.3985 41.7708C40.6107 41.6117 40.8998 41.5457 41.1551 41.5457C41.4797 41.5457 41.6921 41.6061 41.9117 41.7708L48.5603 46.6357C48.704 46.7594 48.869 46.7972 48.9569 46.8119C49.0595 46.829 49.1554 46.8289 49.1965 46.8288L49.2017 46.8288C49.4905 46.8288 49.6808 46.7019 49.7939 46.6025C49.8233 46.5874 49.8524 46.569 49.8808 46.547C49.9933 46.4594 50.0468 46.35 50.0723 46.2736C50.1109 46.1577 50.1086 46.0338 50.1081 46.0078L50.1081 46.0037V45.5991L47.5604 37.7917L47.5566 37.7816C47.4073 37.3834 47.6071 36.7961 48.0293 36.4946L54.6482 31.6734L54.7571 31.5646C54.7991 31.5225 54.8217 31.5005 54.8479 31.4795C54.8713 31.4608 54.9025 31.4392 54.9522 31.4144L55.2286 31.2762V30.9672C55.2286 30.9586 55.2287 30.949 55.2289 30.9387C55.2303 30.8164 55.2332 30.5782 55.0661 30.3624L55.0661 30.0608H54.7045C54.6834 30.0483 54.6604 30.0366 54.6356 30.0261C54.4421 29.8973 54.2495 29.8979 54.1691 29.8982C54.1658 29.8982 54.1626 29.8982 54.1597 29.8982H45.9505C45.4771 29.8982 44.9881 29.5112 44.7969 29.0135L42.2441 21.108L41.9937 20.8575Z"/>
        <path d="M24.3002 17.6106C28.617 13.2117 34.6768 10.4726 41.3175 10.4726C47.9586 10.4726 54.0174 13.2119 58.3332 17.5277C62.7311 21.9256 65.3883 27.9035 65.3883 34.5434C65.3883 41.1783 62.7347 47.3201 58.4145 51.6403C54.0152 56.0396 47.9556 58.6954 41.3175 58.6954C34.6764 58.6954 28.6176 55.9561 24.3018 51.6403C19.9039 47.2424 17.2467 41.2645 17.2467 34.6246C17.2467 27.9844 19.9854 21.9263 24.3002 17.6106ZM22.5706 15.8777C27.3567 11.0916 33.9769 8.14014 41.3175 8.14014C48.6582 8.14014 55.2783 11.0916 60.0644 15.8777C64.8505 20.6638 67.802 27.284 67.802 34.6246C67.802 41.9653 64.8505 48.5855 60.0644 53.3716C55.2783 58.1576 48.6582 61.1091 41.3175 61.1091C33.9769 61.1091 27.3567 58.1576 22.5706 53.3716C17.7845 48.5855 14.833 41.9653 14.833 34.6246C14.833 27.284 17.7845 20.6638 22.5706 15.8777Z"/>
    </symbol>
    <symbol id="icon-feather" viewBox="0 0 99 90">
        <path fill-rule="evenodd" clip-rule="evenodd" d="M89.4186 55.5594C90.2142 55.7904 90.6719 56.6225 90.4409 57.4181C87.3488 68.0685 74.5531 89.4999 48.0004 89.4999C21.425 89.4999 9.2999 68.0385 6.54795 57.3747C6.34094 56.5726 6.8234 55.7545 7.62555 55.5475C8.42769 55.3405 9.24577 55.8229 9.45278 56.6251C12.0342 66.6279 23.3757 86.4999 48.0004 86.4999C72.6476 86.4999 84.6519 66.5979 87.5598 56.5817C87.7908 55.7861 88.623 55.3284 89.4186 55.5594Z"/>
        <path d="M27 64C24.6 67.6 23.3333 71.1667 23 72.5C32 58.5 39.5 50 45.5 44C52 37.5 59.1667 33.3333 63 31C60.1667 33.3333 53 39.4 47 45C41 50.6 35.8333 57 34 59.5C36 59 41.6 57.3 48 54.5C54.4 51.7 60.3333 46 62.5 43.5L55 42.5C55.3333 42.3333 56.5 41.9 58.5 41.5C60.5 41.1 63.3333 40.6667 64.5 40.5L66.5 37L60.5 37.5L67.5 35C67.6667 34.8333 68.2 34.1 69 32.5C69.8 30.9 71.6667 25.5 72.5 23C71.8333 23.1667 69.6 23.7 66 24.5C62.4 25.3 55.5 28.5 52.5 30V32C52.5 32.8 51.8333 34.3333 51.5 35L51 31C49.1667 32 44.1 35.6 38.5 42C32.9 48.4 31.1667 55.6667 31 58.5C30.6667 58.8333 29.4 60.4 27 64Z"/>
        <path d="M33.7113 13.9408L30 3.34619L31.3395 2.87695L34.6189 12.2386L39.9771 10.3616L40.409 11.5946L33.7113 13.9408Z"/>
        <path d="M30.9626 15.1935L28.7752 13.5531L24.9036 16.1489L25.5906 18.7954L24.3581 19.6218L21.5225 8.00736L22.5407 7.32471L32.2084 14.3581L30.9626 15.1935ZM25.1085 10.749L23.0959 9.22443L23.0557 9.25138L23.6928 11.6206L24.5559 14.9063L27.7576 12.7595L25.1085 10.749Z"/>
        <path d="M12.7496 15.8295C13.1656 15.3793 13.6204 15.0456 14.114 14.8283C14.5998 14.6036 15.0936 14.489 15.5957 14.4844C16.105 14.4719 16.6112 14.5737 17.1143 14.7897C17.6096 14.9985 18.0744 15.3035 18.5087 15.7049L20.7831 17.8066C21.249 18.2371 21.6059 18.6986 21.8536 19.1911C22.1086 19.6756 22.2499 20.1722 22.2776 20.6809C22.3047 21.1745 22.2215 21.6686 22.0279 22.1632C21.8417 22.6499 21.5406 23.1184 21.1246 23.5685C20.6722 24.0581 20.1916 24.4119 19.6827 24.6298C19.1812 24.8398 18.6791 24.9396 18.1765 24.929C17.6739 24.9184 17.1822 24.8008 16.7016 24.5763C16.221 24.3517 15.7753 24.0497 15.3647 23.6703L13.0903 21.5686C12.6875 21.1964 12.3592 20.7832 12.1054 20.3291C11.8437 19.8677 11.6878 19.3868 11.6376 18.8866C11.5795 18.3791 11.6354 17.867 11.8053 17.3505C11.9824 16.8261 12.2972 16.3191 12.7496 15.8295ZM13.7438 16.7261C13.4446 17.0499 13.2448 17.385 13.1443 17.7314C13.0438 18.0778 13.0193 18.4212 13.0708 18.7615C13.1144 19.0946 13.226 19.4174 13.4058 19.7299C13.5855 20.0424 13.8057 20.3191 14.0663 20.5599L16.2578 22.5849C16.5342 22.8404 16.8392 23.049 17.1728 23.2108C17.4984 23.3654 17.833 23.4549 18.1764 23.4794C18.5197 23.5039 18.8641 23.4561 19.2094 23.3359C19.5467 23.2085 19.865 22.9828 20.1642 22.6591C20.4342 22.3669 20.6198 22.0552 20.7208 21.724C20.8292 21.3849 20.8616 21.0488 20.818 20.7157C20.7817 20.3747 20.6734 20.0404 20.4931 19.7127C20.3128 19.385 20.0686 19.0789 19.7606 18.7943L17.5691 16.7692C17.2848 16.5065 16.9762 16.3018 16.6432 16.1552C16.3102 16.0085 15.9723 15.9305 15.6295 15.9212C15.2941 15.904 14.9616 15.9628 14.6321 16.0976C14.3099 16.2244 14.0138 16.434 13.7438 16.7261Z"/>
        <path d="M10.6387 23.4108C10.9797 23.594 11.2873 23.8507 11.5615 24.181C11.8408 24.5019 12.0466 24.8687 12.1789 25.2815C12.3162 25.6848 12.3706 26.1289 12.342 26.614C12.3091 27.0845 12.1628 27.5613 11.9034 28.0444L10.5222 30.6164L14.5009 32.753L13.8294 34.0035L3.93945 28.6924L5.88534 25.0689C6.10409 24.6616 6.37459 24.2942 6.69685 23.9669C7.02419 23.6301 7.39241 23.3762 7.8015 23.2053C8.20112 23.0294 8.64127 22.9484 9.12194 22.9624C9.60261 22.9765 10.1082 23.1259 10.6387 23.4108ZM9.89401 24.6952C9.28773 24.3696 8.73856 24.3127 8.24649 24.5245C7.75003 24.7216 7.35173 25.0997 7.05158 25.6586L5.76196 28.06L9.37121 29.9983L10.6914 27.54C10.8592 27.2274 10.9547 26.9247 10.9776 26.6319C10.9912 26.334 10.9533 26.0635 10.8642 25.8204C10.7802 25.5678 10.6543 25.3476 10.4866 25.1599C10.3094 24.9671 10.1119 24.8122 9.89401 24.6952Z"/>
        <path d="M8.64968 37.7821L12.9917 38.7639L12.6929 40.0854L8.35086 39.1036L1 40.8975L1.33083 39.4344L4.71214 38.595L7.02503 38.0927L5.06953 36.5757L2.46207 34.4317L2.78578 33.0001L8.64968 37.7821Z"/>
        <path d="M11.2342 46.4193L6.18591 46.4495L6.21568 51.4172L11.264 51.3869L11.2725 52.8063L0.046875 52.8735L0.0383703 51.4542L4.97377 51.4246L4.944 46.457L0.00860394 46.4866L9.92607e-05 45.0672L11.2257 45L11.2342 46.4193Z"/>
        <path d="M41.9098 11.7641L41 0.575195L42.4147 0.460167L43.2186 10.3469L48.8773 9.88678L48.9832 11.1889L41.9098 11.7641Z"/>
        <path d="M50.9996 11.1569L52.2412 0L59.2944 0.784927L59.1499 2.08336L53.5074 1.45542L53.106 5.06219L57.915 5.59737L57.7776 6.83168L52.9686 6.2965L52.5547 10.0155L58.1973 10.6434L58.0528 11.9419L50.9996 11.1569Z"/>
        <path d="M76.0004 21.9867L84.7871 15L89.204 20.5548L88.1814 21.3679L84.6479 16.9241L81.8074 19.1827L84.8189 22.97L83.8468 23.743L80.8353 19.9556L77.9064 22.2845L81.4399 26.7283L80.4173 27.5414L76.0004 21.9867Z"/>
        <path d="M84.8765 36.0156L88.977 29.6955L90.6097 27.3404L90.5753 27.3028L82.5795 30.8765L82.0003 29.5807L92.249 25L92.8216 26.2811L88.8533 32.3831L87.0589 34.9695L87.1081 35.0005L95.1186 31.4202L95.6912 32.7012L85.4425 37.282L84.8765 36.0156Z"/>
        <path d="M86.0002 40.3073L96.9863 38L97.2781 39.3891L86.2919 41.6964L86.0002 40.3073Z"/>
        <path d="M88.7691 51.3625C88.0252 51.0603 87.4532 50.5859 87.0532 49.9391C86.6532 49.2923 86.4669 48.5122 86.4945 47.5986C86.5146 46.9322 86.6451 46.3499 86.8861 45.8515C87.1267 45.364 87.4401 44.9592 87.8264 44.6374C88.2126 44.3156 88.6607 44.0817 89.1707 43.9357C89.6807 43.7897 90.2152 43.7252 90.7741 43.742L93.8694 43.8354C94.4176 43.852 94.9364 43.9483 95.4259 44.1244C95.9262 44.3009 96.3594 44.5614 96.7255 44.9059C97.1024 45.2508 97.3962 45.6738 97.607 46.175C97.8175 46.687 97.9127 47.2761 97.8925 47.9425C97.865 48.8561 97.6268 49.6181 97.1781 50.2285C96.7294 50.8389 96.1406 51.2783 95.4117 51.5468L94.8551 50.2068C95.3443 50.0387 95.74 49.7601 96.0422 49.3712C96.3444 48.9823 96.5042 48.4977 96.5217 47.9173C96.535 47.4766 96.4659 47.0926 96.3144 46.7653C96.1629 46.4381 95.9561 46.1629 95.6939 45.9398C95.4424 45.7171 95.1463 45.5468 94.8057 45.4289C94.465 45.3111 94.1173 45.2468 93.7626 45.2361L90.8446 45.148C90.4684 45.1367 90.1014 45.1794 89.7434 45.2762C89.3963 45.3733 89.0851 45.5253 88.8099 45.7321C88.5347 45.9389 88.3063 46.201 88.1246 46.5182C87.9537 46.8358 87.8615 47.2149 87.8482 47.6556C87.8307 48.236 87.9664 48.7295 88.2554 49.1363C88.5547 49.5541 88.9542 49.862 89.4539 50.0599L88.7691 51.3625Z"/>
        <path d="M64.6529 14.6922L64.5127 9.31256L62.1648 8.36401L60.3161 12.9402L59.0001 12.4085L63.2051 2L67.4522 3.71584C67.8709 3.88501 68.2366 4.11389 68.5491 4.4025C68.8615 4.69111 69.102 5.01441 69.2705 5.3724C69.439 5.7304 69.5276 6.11408 69.5361 6.52344C69.5547 6.93683 69.4794 7.35289 69.3102 7.77162C69.0202 8.48944 68.5651 9.01302 67.945 9.34234C67.3389 9.66573 66.6616 9.79218 65.913 9.72172L66.1185 15.2843L64.6529 14.6922ZM67.9942 7.23995C68.2318 6.65173 68.2256 6.15053 67.9754 5.73634C67.7252 5.32216 67.316 5.00027 66.7477 4.77069L64.0559 3.68318L62.63 7.2125L65.2621 8.27583C65.8304 8.50542 66.3663 8.54221 66.8701 8.3862C67.3778 8.22022 67.7525 7.83814 67.9942 7.23995Z"/>
        <path d="M71.9601 17.5068C72.2518 17.7271 72.5643 17.8754 72.8974 17.9518C73.2369 18.0195 73.5713 18.0227 73.9006 17.9614C74.2384 17.9066 74.556 17.7893 74.8533 17.6096C75.1507 17.43 75.4063 17.1985 75.6201 16.9153L76.1546 16.2074L74.2624 14.7787L75.0399 13.7489L78.0648 16.0328L76.7528 17.7706C76.4094 18.2254 76.0147 18.5876 75.5687 18.8571C75.1226 19.1266 74.6511 19.2961 74.1541 19.3655C73.6636 19.4263 73.1594 19.3892 72.6416 19.2542C72.1388 19.1171 71.6514 18.8704 71.1794 18.514C70.6388 18.1058 70.2349 17.6594 69.9676 17.1746C69.7089 16.6964 69.5599 16.2067 69.5207 15.7054C69.4965 15.2021 69.5723 14.7002 69.7481 14.1997C69.9239 13.6992 70.1802 13.2258 70.5172 12.7796L72.3831 10.3081C72.7136 9.87049 73.0879 9.49964 73.5061 9.19561C73.9393 8.88947 74.398 8.68341 74.8823 8.57743C75.3729 8.46288 75.8794 8.46127 76.4016 8.57263C76.9324 8.69046 77.4639 8.95022 77.9959 9.35193C78.7253 9.90266 79.2093 10.5375 79.4479 11.2566C79.6864 11.9756 79.7045 12.7101 79.5021 13.46L78.087 13.1393C78.2327 12.643 78.2299 12.1559 78.0788 11.678C77.9276 11.2001 77.6204 10.7862 77.157 10.4363C76.8051 10.1707 76.4562 10.0083 76.1101 9.94912C75.7641 9.88994 75.4285 9.90607 75.1035 9.9975C74.7935 10.0868 74.4963 10.2396 74.2117 10.4559C73.9272 10.6722 73.678 10.922 73.4642 11.2052L71.6468 13.6123C71.42 13.9126 71.2426 14.2368 71.1146 14.5847C70.9931 14.9241 70.9371 15.2659 70.9468 15.61C70.9564 15.9541 71.0382 16.292 71.1919 16.6237C71.3522 16.9468 71.6082 17.2412 71.9601 17.5068Z"/>
    </symbol>
    <symbol id="icon-plast" viewBox="0 0 83 83">
        <path d="M40.354 32.1154C40.7685 32.1154 41.1831 31.9568 41.4984 31.6397L42.4965 30.6361C43.1242 30.0051 43.1205 28.9852 42.4886 28.3584C41.8566 27.7317 40.8357 27.7351 40.2077 28.3663L39.2096 29.3699C38.5819 30.001 38.5856 31.0207 39.2175 31.6476C39.5322 31.9597 39.9431 32.1154 40.354 32.1154Z"/>
        <path d="M46.0143 38.2229C46.4288 38.2229 46.8434 38.0642 47.1587 37.7471L48.1567 36.7435C48.7844 36.1125 48.7807 35.0927 48.1488 34.4658C47.5166 33.8391 46.4957 33.8425 45.8679 34.4737L44.8698 35.4773C44.2421 36.1083 44.2458 37.1281 44.8777 37.755C45.1926 38.0671 45.6036 38.2229 46.0143 38.2229Z"/>
        <path d="M51.528 40.1656L50.5299 41.1692C49.9022 41.8003 49.9059 42.8202 50.5378 43.447C50.8525 43.759 51.2634 43.9148 51.6743 43.9148C52.0888 43.9148 52.5034 43.7561 52.8187 43.439L53.8168 42.4354C54.4445 41.8042 54.4408 40.7845 53.8089 40.1576C53.1766 39.531 52.1557 39.5344 51.528 40.1656Z"/>
        <path d="M34.8462 37.6526C35.2607 37.6526 35.6753 37.4939 35.9905 37.1769L36.9886 36.1734C37.6164 35.5422 37.6129 34.5223 36.9808 33.8957C36.349 33.2688 35.3276 33.2722 34.7001 33.9032L33.702 34.907C33.0742 35.538 33.0777 36.5578 33.7097 37.1847C34.0244 37.4966 34.4353 37.6526 34.8462 37.6526Z"/>
        <path d="M40.5065 43.344C40.921 43.344 41.3356 43.1853 41.6507 42.8684L42.6489 41.8647C43.2767 41.2337 43.2732 40.2139 42.6411 39.5871C42.0094 38.9602 40.9881 38.9636 40.3604 39.5946L39.3621 40.5983C38.7344 41.2293 38.7378 42.2491 39.3698 42.8759C39.6845 43.1881 40.0956 43.344 40.5065 43.344Z"/>
        <path d="M46.0214 45.2867L45.0233 46.2903C44.3954 46.9213 44.399 47.9411 45.031 48.568C45.3455 48.8801 45.7566 49.0359 46.1675 49.0359C46.582 49.0359 46.9966 48.8772 47.3118 48.5602L48.3099 47.5565C48.9377 46.9255 48.9342 45.9055 48.3021 45.2788C47.6704 44.6521 46.6491 44.6555 46.0214 45.2867Z"/>
        <path d="M29.1939 39.4416L28.1959 40.4452C27.5682 41.0764 27.572 42.0961 28.2038 42.7229C28.5185 43.0349 28.9294 43.1906 29.3403 43.1906C29.7548 43.1906 30.1694 43.032 30.4847 42.7149L31.4829 41.7113C32.1106 41.0802 32.1068 40.0604 31.475 39.4335C30.8426 38.8068 29.8217 38.8104 29.1939 39.4416Z"/>
        <path d="M34.8542 45.133L33.8561 46.1367C33.2284 46.7677 33.2321 47.7875 33.864 48.4143C34.1786 48.7263 34.5895 48.882 35.0005 48.882C35.4149 48.882 35.8296 48.7234 36.1449 48.4063L37.143 47.4028C37.7706 46.7716 37.7669 45.7519 37.1351 45.1251C36.5029 44.4983 35.482 44.5017 34.8542 45.133Z"/>
        <path d="M40.5132 50.8254L39.5153 51.829C38.8876 52.4602 38.8913 53.4799 39.5232 54.1067C39.8378 54.4187 40.2487 54.5744 40.6596 54.5744C41.0741 54.5744 41.4888 54.4158 41.804 54.0987L42.8022 53.0951C43.4298 52.4639 43.4261 51.4442 42.7943 50.8174C42.1619 50.1907 41.1409 50.1941 40.5132 50.8254Z"/>
        <path d="M76.9972 53.0221L65.2726 41.2321L68.8285 37.6565C68.8309 37.6541 68.8333 37.6515 68.8357 37.6489L76.9971 29.4423C83.6829 22.7189 83.6829 11.7793 76.9971 5.05609C73.7547 1.79553 69.4429 0 64.8558 0C60.2691 0 55.9571 1.79553 52.7148 5.05609L41.0059 16.8303L29.297 5.05609C26.1271 1.86849 21.9343 0.113066 17.4908 0.113227C12.9095 0.113227 8.55966 1.95015 5.24277 5.2856C1.9949 8.55115 0.170425 12.8325 0.105271 17.3407C0.0394716 21.8949 1.78283 26.1927 5.0144 29.4423L16.7389 41.2321L5.0144 53.0219C-1.67147 59.7453 -1.67147 70.6849 5.0144 77.4081C8.25695 80.6687 12.5689 82.4642 17.1558 82.4642C21.7425 82.4642 26.0545 80.6687 29.2969 77.4081L41.0057 65.6339L52.7148 77.4081C55.9573 80.6687 60.2691 82.4642 64.856 82.4642C69.4427 82.4642 73.7547 80.6685 76.9969 77.4081C83.6833 70.6849 83.6833 59.7453 76.9972 53.0221ZM55.0035 7.32594C57.6358 4.67904 61.1348 3.22126 64.856 3.22126C68.577 3.22126 72.0762 4.67904 74.7086 7.32611C80.1498 12.7977 80.1498 21.7006 74.7085 27.1723L63.0459 38.8997C63.0451 38.9006 63.0443 38.9015 63.0433 38.9023L62.9996 38.9463L43.2789 19.1159L55.0035 7.32594ZM7.30318 27.1723C1.89733 21.7364 1.99764 13.1197 7.53122 7.55546C10.238 4.8335 13.775 3.33432 17.4906 3.33432C21.0684 3.33432 24.4485 4.75184 27.0083 7.32594L38.7329 19.1157L19.012 38.9465L7.30318 27.1723ZM27.0083 75.1383C24.3758 77.7852 20.8768 79.2429 17.1556 79.2429C13.4346 79.2429 9.93563 77.7852 7.30302 75.1381C1.86185 69.6665 1.86185 60.7635 7.30318 55.2919L19.012 43.5177L38.7326 63.3483L27.0083 75.1383ZM74.7085 75.1383C72.0762 77.7852 68.5772 79.2429 64.8558 79.2429C61.1348 79.2429 57.6357 77.7852 55.0034 75.1383L43.2787 63.3483L48.6494 57.9478C49.2772 57.3168 49.2737 56.297 48.6417 55.6701C48.0095 55.0432 46.9885 55.0468 46.3609 55.6778L41.0059 61.0626L21.2852 41.2321L41.0059 21.4016L60.7265 41.2321L56.6711 45.31C56.0434 45.9411 56.047 46.9609 56.679 47.5878C56.9936 47.8999 57.4046 48.0557 57.8155 48.0557C58.23 48.0557 58.6446 47.897 58.9599 47.5801L62.9996 43.5179L74.7085 55.2921C80.1498 60.7635 80.1498 69.6666 74.7085 75.1383Z"/>
        <path d="M54.1293 51.0348C53.869 50.4007 53.2089 49.9951 52.5248 50.0446C51.8561 50.0929 51.2744 50.565 51.0901 51.2083C50.9043 51.8564 51.1544 52.5667 51.702 52.9596C52.2411 53.3467 52.9836 53.357 53.5358 52.9901C54.1675 52.5704 54.4207 51.7336 54.1293 51.0348Z"/>
    </symbol>
    <symbol id="icon-box" viewBox="0 0 40 40">
        <path d="M34.6328 13.6779L38.8373 9.43924C38.9617 9.31368 39.0197 9.13695 38.994 8.96217C38.9682 8.78731 38.8616 8.63482 38.7062 8.55064L24.9018 1.06854C24.6834 0.950243 24.4132 0.989375 24.2376 1.16506L19.9997 5.40293L15.7621 1.16536C15.6566 1.05911 15.5152 1 15.3663 1C15.2728 1 15.1808 1.02387 15.0984 1.06884L10.6645 3.47124C10.5329 3.54307 10.4371 3.66129 10.3944 3.80495C10.3518 3.94861 10.3675 4.1005 10.4386 4.23219C10.5373 4.41326 10.7266 4.52631 10.9324 4.52631C11.0252 4.52631 11.118 4.50237 11.1995 4.45822L15.2646 2.25477L19.0707 6.06092L6.26063 12.9849L2.48666 9.18013L9.22578 5.52744C9.35821 5.45636 9.45398 5.33814 9.49663 5.19448C9.53928 5.05082 9.52357 4.89893 9.45174 4.76724C9.35372 4.58617 9.16442 4.47319 8.95866 4.47319C8.86588 4.47319 8.77385 4.49706 8.69154 4.5412L1.29399 8.55094C1.1391 8.63392 1.03136 8.78813 1.00592 8.96247C0.980479 9.13598 1.03892 9.31406 1.16305 9.43909L5.3671 13.678L1.16275 17.9166C1.03832 18.0421 0.980255 18.2188 1.00599 18.3936C1.03181 18.5685 1.13843 18.721 1.29376 18.8052L5.59703 21.1375V31.2643C5.59696 31.2837 5.59793 31.303 5.59987 31.3221C5.6007 31.3302 5.60227 31.3382 5.60339 31.3462C5.60481 31.356 5.60594 31.3658 5.60788 31.3755C5.61028 31.3877 5.61357 31.3995 5.61671 31.4114C5.61821 31.4169 5.61933 31.4224 5.62097 31.4279C5.62464 31.4399 5.62906 31.4517 5.63347 31.4635C5.63542 31.4687 5.63706 31.474 5.63923 31.4792C5.64357 31.4898 5.64858 31.4999 5.65352 31.5101C5.65659 31.5165 5.65936 31.5228 5.66265 31.529C5.66714 31.5374 5.67215 31.5454 5.67694 31.5535C5.68158 31.5612 5.686 31.569 5.69093 31.5765C5.69505 31.5827 5.69969 31.5887 5.7041 31.5947C5.71046 31.6035 5.71675 31.6124 5.72363 31.6209C5.72745 31.6256 5.73171 31.63 5.73568 31.6345C5.74361 31.6437 5.75154 31.6528 5.76007 31.6614C5.76448 31.6658 5.76935 31.6698 5.77391 31.6743C5.78244 31.6823 5.79082 31.6903 5.79988 31.6978C5.80863 31.7051 5.81791 31.7117 5.82704 31.7183C5.83242 31.7223 5.83744 31.7265 5.84297 31.7303C5.85906 31.7411 5.87575 31.7512 5.89295 31.7605L19.7303 39.2402C19.7502 39.2512 19.771 39.2606 19.7923 39.2691C19.7969 39.2709 19.8016 39.2726 19.8064 39.2742C19.8219 39.28 19.8377 39.2851 19.8539 39.2893C19.8598 39.2909 19.8655 39.2925 19.8714 39.2938C19.8871 39.2975 19.903 39.3004 19.9192 39.3027C19.9247 39.3035 19.9301 39.3045 19.9357 39.3052C19.9568 39.3076 19.9782 39.3092 19.9999 39.3092C20.0217 39.3092 20.0431 39.3076 20.0642 39.3052C20.0697 39.3045 20.0752 39.3035 20.0807 39.3027C20.0969 39.3004 20.1128 39.2975 20.1285 39.2938C20.1343 39.2925 20.1401 39.2909 20.1459 39.2893C20.1621 39.285 20.1779 39.28 20.1934 39.2742C20.1981 39.2726 20.2028 39.2709 20.2075 39.2691C20.2287 39.2606 20.2495 39.2512 20.2694 39.2402L34.1067 31.7605C34.124 31.7512 34.1406 31.7411 34.1567 31.7303C34.1623 31.7265 34.1674 31.7222 34.1727 31.7183C34.1819 31.7116 34.1911 31.705 34.1998 31.6978C34.2089 31.6903 34.2173 31.6823 34.2258 31.6743C34.2304 31.6698 34.2352 31.6659 34.2396 31.6614C34.2482 31.6528 34.2561 31.6437 34.264 31.6345C34.268 31.63 34.2723 31.6256 34.2761 31.6209C34.283 31.6125 34.2892 31.6035 34.2956 31.5947C34.3 31.5887 34.3047 31.5827 34.3088 31.5765C34.3137 31.569 34.3181 31.5613 34.3228 31.5535C34.3276 31.5454 34.3326 31.5374 34.3371 31.529C34.3403 31.5228 34.3431 31.5165 34.3462 31.5101C34.3511 31.4999 34.3561 31.4898 34.3605 31.4792C34.3626 31.474 34.3643 31.4687 34.3662 31.4635C34.3706 31.4517 34.3751 31.44 34.3787 31.4279C34.3804 31.4225 34.3815 31.4169 34.383 31.4114C34.3861 31.3995 34.3894 31.3877 34.3918 31.3755C34.3938 31.3658 34.3949 31.356 34.3963 31.3462C34.3974 31.3382 34.3991 31.3302 34.3998 31.3221C34.4018 31.3029 34.4027 31.2836 34.4027 31.2643V21.1375L38.7057 18.8052C38.8606 18.7214 38.9683 18.5673 38.9938 18.3937C39.0192 18.2194 38.9609 18.0413 38.8374 17.9163L34.6328 13.6779ZM24.7351 2.25485L37.513 9.1805L33.7391 12.9851L20.9292 6.0607L24.7351 2.25485ZM6.42315 20.3088L2.48688 18.1753L6.26078 14.3707L19.0708 21.2951L15.2649 25.1009L6.42794 20.3113C6.42636 20.3104 6.42479 20.3096 6.42315 20.3088ZM19.4388 37.8068L6.71929 30.9313V21.7458L15.0982 26.2873C15.1824 26.3328 15.2743 26.355 15.3654 26.355C15.5108 26.355 15.6545 26.2986 15.7624 26.1907L19.4388 22.5143V37.8068ZM20 20.5216L7.3395 13.678L20.0003 6.83436L32.6608 13.6779L20 20.5216ZM33.579 20.3077C33.576 20.3092 33.573 20.3109 33.57 20.3125L30.7742 21.8279C30.6418 21.899 30.546 22.018 30.5034 22.1616C30.4607 22.3053 30.4764 22.4572 30.5475 22.5889C30.6463 22.77 30.8356 22.8822 31.0413 22.8822C31.1341 22.8822 31.2269 22.859 31.3085 22.8149L33.2806 21.7459V30.9314L20.5612 37.8069V22.514L24.2379 26.1907C24.3442 26.297 24.4848 26.3553 24.6344 26.3553C24.7272 26.3553 24.8192 26.3314 24.9016 26.2873L29.3355 23.884C29.4671 23.8129 29.5629 23.694 29.6056 23.5503C29.6482 23.4067 29.6325 23.2555 29.5614 23.1238C29.4627 22.942 29.2734 22.8298 29.0668 22.8298C28.9748 22.8298 28.882 22.853 28.8005 22.8979L24.7354 25.1005L20.9293 21.2952L33.7394 14.3704L37.5134 18.1751L33.579 20.3077Z" fill="white" stroke="white" stroke-width="0.6"/>
    </symbol>
    <symbol id="icon-replace" viewBox="0 0 45 45">
        <path d="M22.5281 44C16.7778 44 11.3715 41.7636 7.30541 37.7028C3.23933 33.642 1 28.2428 1 22.5C1 16.7572 3.23933 11.358 7.30541 7.29719C11.3715 3.23641 16.7778 1 22.5281 1C28.2783 1 33.6847 3.23641 37.7507 7.29719C41.8168 11.358 44.0562 16.7572 44.0562 22.5C44.0562 28.2428 41.8168 33.642 37.7507 37.7028C33.6847 41.7636 28.2783 44 22.5281 44ZM22.5281 2.67969C17.2269 2.67969 12.243 4.74124 8.49455 8.48478C4.74613 12.2283 2.68188 17.2057 2.68188 22.5C2.68188 27.7943 4.74613 32.7717 8.49455 36.5152C12.243 40.2588 17.2269 42.3203 22.5281 42.3203C27.8293 42.3203 32.8132 40.2588 36.5616 36.5152C40.31 32.7717 42.3743 27.7943 42.3743 22.5C42.3743 17.2057 40.31 12.2283 36.5616 8.48478C32.8132 4.74124 27.8293 2.67969 22.5281 2.67969Z" fill="white" stroke="white" stroke-width="0.4"/>
        <path d="M25.9178 39.4465C25.5278 39.4465 25.1783 39.1746 25.0952 38.7786C25.0003 38.3246 25.2916 37.8797 25.7463 37.7846C29.2082 37.0618 32.3591 35.1515 34.6185 32.4056C36.9087 29.623 38.1698 26.1032 38.1698 22.4941C38.1698 13.8808 31.1532 6.87305 22.5284 6.87305C13.9035 6.87305 6.88695 13.8808 6.88695 22.4941C6.88695 26.0983 8.14507 29.6148 10.4301 32.3958C12.6842 35.1394 15.8285 37.0513 19.2842 37.779C19.7385 37.8748 20.0292 38.3203 19.9336 38.774C19.8377 39.228 19.3919 39.5181 18.9373 39.4226C15.1088 38.6162 11.6254 36.4992 9.12956 33.4613C6.59887 30.3808 5.20508 26.486 5.20508 22.4941C5.20508 12.9544 12.9762 5.19336 22.5284 5.19336C32.0806 5.19336 39.8517 12.9544 39.8517 22.4941C39.8517 26.491 38.4546 30.3897 35.918 33.4722C33.4162 36.5127 29.926 38.628 26.0905 39.4288C26.0327 39.441 25.9746 39.4465 25.9178 39.4465Z" fill="white" stroke="white" stroke-width="0.4"/>
        <path d="M22.5288 39.8066C22.0643 39.8066 21.6875 39.4307 21.6875 38.9668C21.6875 38.5029 22.0636 38.127 22.5281 38.127H22.5288C22.9933 38.127 23.3698 38.5029 23.3698 38.9668C23.3698 39.4307 22.9933 39.8066 22.5288 39.8066Z" fill="white" stroke="white" stroke-width="0.4"/>
        <path d="M32.6193 22.5004C31.6223 22.5004 30.6194 22.5342 29.6231 22.5004C28.044 22.4466 28.5171 20.905 28.0437 19.7581C26.6437 16.3649 21.7518 15.7367 19.0026 17.792C19.5417 18.3304 21.898 20.1117 20.3764 20.804C19.6435 21.1376 18.3463 20.863 17.5776 20.8604C16.2624 20.8558 14.9359 20.9027 13.6216 20.8469C12.5622 20.802 12.44 20.1921 12.44 19.2752C12.44 17.9121 12.4397 16.549 12.4397 15.1859C12.4394 14.4625 12.0932 12.422 13.2823 12.4246C13.8779 12.4262 14.432 13.227 14.8091 13.6036C14.9264 13.7211 15.2394 14.1535 15.3932 14.1869C15.5899 14.2299 16.3767 13.4691 16.6263 13.3087C18.9668 11.8068 21.7705 11.3161 24.5049 11.7314C27.1936 12.1395 29.7666 13.4645 31.4482 15.632C32.0878 16.4568 35.0274 22.5004 32.6193 22.5004ZM30.0482 20.8207H31.7406C31.3467 16.5152 27.6692 13.6647 23.5214 13.3064C21.421 13.1247 19.3187 13.578 17.5366 14.721C16.9492 15.098 16.1011 16.214 15.3925 16.2144C14.8732 16.2144 14.457 15.6278 14.1216 15.2925V17.2307C14.1216 17.4492 13.9409 19.0173 14.1219 19.1689C14.3614 19.3693 15.6625 19.1741 15.9523 19.1751C16.6401 19.1774 17.328 19.1797 18.0162 19.182C17.7498 18.916 17.3881 18.6528 17.1762 18.3432C16.562 17.4462 17.4502 16.8311 18.1453 16.3374C19.7273 15.2134 21.647 14.7975 23.5644 14.9933C26.7974 15.324 29.6553 17.46 30.0482 20.8207Z" fill="white" stroke="white" stroke-width="0.4"/>
        <path d="M22.5272 33.418C18.7853 33.418 14.9948 31.7619 13.0042 28.4934C12.2122 27.1929 11.2645 24.9197 11.5949 23.3398C11.8268 22.2316 13.0101 22.4999 13.8891 22.4999C14.5402 22.4999 16.0102 22.2345 16.4783 22.8437C16.7861 23.2443 16.6639 24.05 16.7845 24.5444C16.9405 25.1858 17.2279 25.796 17.6323 26.3189C19.5392 28.7857 23.6424 29.0101 26.0526 27.2083C25.5313 26.6877 24.8214 26.172 24.4075 25.5654C23.6753 24.4926 24.7508 24.1307 25.595 24.1337C27.5364 24.1403 29.4939 24.071 31.4333 24.153C32.1343 24.1829 32.5324 24.3899 32.6149 25.151C32.7039 25.9728 32.6152 26.854 32.6152 27.6798C32.6155 28.7361 32.6155 29.7925 32.6159 30.8489C32.6159 31.5601 32.6504 32.9551 31.455 32.5122C31.0293 32.3547 30.6334 31.7832 30.3279 31.4784C29.6516 30.8026 29.7931 30.7167 28.9821 31.3124C27.1221 32.6779 24.8342 33.418 22.5272 33.418ZM13.3146 24.1796C13.7084 28.4852 17.3859 31.3357 21.5338 31.694C23.6345 31.8757 25.7366 31.4223 27.5186 30.2794C28.106 29.9024 28.9542 28.786 29.6627 28.786C30.1821 28.786 30.5983 29.3726 30.9337 29.7079C30.9337 29.0616 30.9337 28.4156 30.9337 27.7697C30.9337 27.5512 31.1143 25.983 30.9333 25.8314C30.6939 25.631 29.3927 25.8262 29.103 25.8252C28.4151 25.8229 27.7272 25.8206 27.039 25.8183C27.3866 26.1651 27.9953 26.586 28.0932 27.0902C28.2633 27.9642 26.8564 28.743 26.2142 29.1016C24.2554 30.1947 21.8653 30.3145 19.7412 29.6547C18.0235 29.1213 16.5092 28.0022 15.6732 26.3895C15.4504 25.96 15.2396 24.3758 14.9676 24.1796C14.6972 23.9847 13.6638 24.1796 13.3146 24.1796Z" fill="white" stroke="white" stroke-width="0.4"/>
    </symbol>
    <symbol id="icon-thermometer" viewBox="0 0 30 52">
        <path d="M19.3013 28.3704V6.75304C19.3013 3.02339 16.2779 0 12.5483 0C8.81862 0 5.79523 3.02339 5.79523 6.75304V28.3608C-0.0416777 32.0848 -1.75465 39.8356 1.96935 45.6725C4.26752 49.2745 8.24195 51.4581 12.5147 51.4661L12.5819 51.4757C19.5056 51.4627 25.1079 45.8394 25.0949 38.9157C25.0869 34.643 22.9033 30.6686 19.3013 28.3704ZM7.27351 48.1388C2.19097 45.2044 0.449681 38.7054 3.38404 33.623C4.31672 32.0076 5.65808 30.6662 7.27351 29.7335C7.57168 29.5613 7.75479 29.2426 7.75347 28.8984V6.75304C7.75347 4.08374 9.91737 1.91984 12.5867 1.91984C15.256 1.91984 17.4199 4.08374 17.4199 6.75304V28.8984C17.4185 29.2426 17.6016 29.5613 17.8998 29.7335C22.9824 32.6679 24.7237 39.1669 21.7893 44.2493C18.8549 49.3318 12.3559 51.0732 7.27351 48.1388Z" fill="white"/>
        <path d="M13.5418 32.0375V17.4755C13.5418 16.9454 13.112 16.5156 12.5819 16.5156C12.0518 16.5156 11.622 16.9454 11.622 17.4755V32.0375C7.99578 32.5576 5.47767 35.9187 5.99771 39.5449C6.46711 42.818 9.27536 45.2455 12.5819 45.2364C16.2452 45.2465 19.2231 42.285 19.2333 38.6217C19.2424 35.3152 16.8149 32.5069 13.5418 32.0375ZM12.5819 43.307C9.97886 43.307 7.86871 41.1968 7.86871 38.5938C7.87399 35.993 9.98102 33.8859 12.5819 33.8806C15.185 33.8806 17.2951 35.9907 17.2951 38.5938C17.2951 41.1968 15.1849 43.307 12.5819 43.307Z" fill="white"/>
        <path d="M28.6606 6.59961H22.6611C22.131 6.59961 21.7012 7.02941 21.7012 7.55953C21.7012 8.08964 22.131 8.51945 22.6611 8.51945H28.6606C29.1907 8.51945 29.6205 8.08964 29.6205 7.55953C29.6205 7.02941 29.1907 6.59961 28.6606 6.59961Z" fill="white"/>
        <path d="M27.3852 11.3984H23.8623C23.3321 11.3984 22.9023 11.8282 22.9023 12.3584C22.9023 12.8885 23.3321 13.3183 23.8623 13.3183H27.3852C27.9153 13.3183 28.3451 12.8885 28.3451 12.3584C28.3451 11.8282 27.9153 11.3984 27.3852 11.3984Z" fill="white"/>
        <path d="M28.6606 16.1982H22.6611C22.131 16.1982 21.7012 16.628 21.7012 17.1582C21.7012 17.6883 22.131 18.1181 22.6611 18.1181H28.6606C29.1907 18.1181 29.6205 17.6883 29.6205 17.1582C29.6205 16.628 29.1907 16.1982 28.6606 16.1982Z" fill="white"/>
        <path d="M27.3852 20.998H23.8623C23.3321 20.998 22.9023 21.4279 22.9023 21.958C22.9023 22.4881 23.3321 22.9179 23.8623 22.9179H27.3852C27.9153 22.9179 28.3451 22.4881 28.3451 21.958C28.3451 21.4279 27.9153 20.998 27.3852 20.998Z" fill="white"/>
        <path d="M28.6606 25.7979H22.6611C22.131 25.7979 21.7012 26.2277 21.7012 26.7578C21.7012 27.2879 22.131 27.7177 22.6611 27.7177H28.6606C29.1907 27.7177 29.6205 27.2879 29.6205 26.7578C29.6205 26.2277 29.1907 25.7979 28.6606 25.7979Z" fill="white"/>
    </symbol>
    <symbol id="icon-drop" viewBox="0 0 35 45">
        <path d="M12.5475 38.2517C8.25915 36.92 5.37786 33.009 5.37786 28.5195C5.37786 26.3251 6.06573 24.2344 7.3672 22.4735C7.39689 22.4333 7.42371 22.3894 7.44608 22.3447C7.66112 21.9153 7.48648 21.3937 7.0564 21.1789C6.66714 20.9842 6.20154 21.1093 5.95725 21.453C4.43916 23.5127 3.63672 25.9559 3.63672 28.5195C3.63672 31.1156 4.45753 33.5839 6.01035 35.6575C7.51129 37.6617 9.64925 39.1728 12.0305 39.9122C12.1167 39.939 12.2037 39.9517 12.2893 39.9517C12.6604 39.9517 13.0044 39.7126 13.1204 39.3401C13.2632 38.8815 13.0067 38.3942 12.5475 38.2517Z" fill="white"/>
        <path d="M34.8648 20.3569C34.8648 18.7019 34.3484 17.1251 33.371 15.7953L27.8599 7.62473C27.6981 7.38485 27.4275 7.24103 27.1378 7.24103C26.8482 7.24103 26.5776 7.38485 26.4158 7.62473L24.0935 11.0676L16.9132 0.422763C16.7514 0.182874 16.4807 0.0390625 16.1912 0.0390625C15.9016 0.0390625 15.6309 0.182874 15.4692 0.422763L3.14335 18.696C1.08679 21.4871 0 24.7977 0 28.2719C0 37.188 7.26336 44.4419 16.1912 44.4419C25.119 44.4419 32.3823 37.188 32.3823 28.2719C32.3823 27.5601 32.3347 26.8471 32.2422 26.1451C33.8491 24.73 34.8648 22.6598 34.8648 20.3569ZM27.1378 9.66679L31.9267 16.7664C31.9362 16.7812 31.9463 16.7957 31.9569 16.81C32.7201 17.8423 33.1236 19.0688 33.1236 20.3568C33.1236 23.653 30.4384 26.3347 27.1378 26.3347C23.8373 26.3347 21.1522 23.653 21.1522 20.3568C21.1522 19.0688 21.5556 17.8423 22.3189 16.81C22.329 16.7963 22.3387 16.7824 22.348 16.7681L24.8138 13.1124C24.8183 13.1057 24.8231 13.0991 24.8274 13.0922L27.1378 9.66679ZM30.641 28.2719C30.641 36.2292 24.1588 42.7029 16.1911 42.7029C8.2233 42.7029 1.74114 36.2292 1.74114 28.2719C1.74114 25.164 2.71536 22.203 4.55862 19.7092C4.56916 19.695 4.57935 19.6801 4.58918 19.6649L16.1912 2.46473L23.0439 12.6239L20.9047 15.7954C19.9274 17.1251 19.411 18.702 19.411 20.3569C19.411 24.612 22.8772 28.0737 27.1378 28.0737C28.3837 28.0737 29.5614 27.7773 30.6045 27.2521C30.6283 27.5912 30.641 27.9316 30.641 28.2719Z" fill="white"/>
        <path d="M24.0674 20.1441C24.0674 19.7229 24.1533 19.3163 24.3228 18.9357C24.5181 18.4969 24.3202 17.983 23.8809 17.788C23.4415 17.5931 22.9271 17.7904 22.7317 18.2293C22.4626 18.8337 22.3262 19.4779 22.3262 20.1441C22.3262 21.7222 23.1111 23.189 24.4258 24.0675C24.5745 24.1669 24.7427 24.2144 24.9092 24.2144C25.1901 24.2144 25.4657 24.0789 25.6336 23.8284C25.9009 23.4292 25.7937 22.8892 25.3941 22.6222C24.5634 22.067 24.0674 21.1406 24.0674 20.1441Z" fill="white"/>
        <path d="M15.7778 39.4565C15.5647 38.8971 14.7695 38.7375 14.3578 39.1748C13.8678 39.6491 14.1316 40.5199 14.8036 40.6415C15.4699 40.7874 16.0506 40.0811 15.7778 39.4565Z" fill="white"/>
        <path d="M26.679 24.8603C27.2403 25.2486 28.0442 24.8193 28.0328 24.1378C28.0454 23.4563 27.2399 23.0261 26.679 23.4145C26.1705 23.7327 26.1685 24.5432 26.679 24.8603Z" fill="white"/>
    </symbol>
    <symbol id="icon-timer" viewBox="0 0 40 47">
        <path d="M22.6117 8.18214V5.86258C23.9523 5.86052 25.0425 4.77075 25.0425 3.43138C25.0425 2.09066 23.9503 1 22.6079 1H17.5539C16.2115 1 15.1193 2.09066 15.1193 3.43138C15.1193 4.77075 16.2095 5.86052 17.5501 5.86258V8.18214C8.20028 9.39265 0.703125 17.383 0.703125 27.3709C0.703125 38.0665 9.3699 46.7234 20.0809 46.7234C30.7905 46.7234 39.4587 38.0679 39.4587 27.3709C39.4587 17.3846 31.9645 9.39301 22.6117 8.18214ZM16.9077 3.43138C16.9077 3.07559 17.1976 2.78607 17.5539 2.78607H22.608C22.9643 2.78607 23.2542 3.0755 23.2542 3.43138C23.2542 3.78716 22.9643 4.07659 22.608 4.07659C21.5376 4.07659 18.6042 4.07659 17.5539 4.07659C17.1976 4.07659 16.9077 3.78707 16.9077 3.43138ZM19.3385 8.03301V5.86266H20.8233V8.0331C20.2979 8.01256 19.8028 8.01488 19.3385 8.03301ZM20.0809 44.9373C10.3821 44.9373 2.49153 37.0571 2.49153 27.3709C2.49153 17.5625 10.5957 9.58358 20.489 9.80961C30.0187 10.0378 37.6702 17.8303 37.6702 27.3709C37.6703 37.0571 29.7797 44.9373 20.0809 44.9373Z" fill="white" stroke="white" stroke-width="0.4"/>
        <path d="M18.3447 12.1975C17.8539 12.253 17.5012 12.6952 17.5567 13.1853C17.6122 13.6753 18.0548 14.0284 18.5458 13.9722C26.6061 13.0613 33.5843 19.3784 33.5843 27.3709C33.5843 34.8065 27.5271 40.8558 20.0818 40.8558C12.6366 40.8558 6.57942 34.8065 6.57942 27.3709C6.57942 23.0337 8.68973 18.9335 12.2245 16.403C12.6259 16.1157 12.718 15.5578 12.4303 15.1569C12.1425 14.756 11.584 14.664 11.1825 14.9514C7.18041 17.8165 4.79102 22.4592 4.79102 27.3709C4.79102 35.7913 11.6504 42.6418 20.0818 42.6418C28.5133 42.6418 35.3727 35.7913 35.3727 27.3709C35.3727 18.2936 27.4459 11.1693 18.3447 12.1975Z" fill="white" stroke="white" stroke-width="0.4"/>
        <path d="M19.1872 23.9984C17.6928 24.3939 16.5879 25.7558 16.5879 27.371C16.5879 29.2947 18.1551 30.8599 20.0814 30.8599C22.0077 30.8599 23.5748 29.2947 23.5748 27.371C23.5748 25.7558 22.47 24.3939 20.9756 23.9984V18.9223C20.9756 18.4291 20.5752 18.0293 20.0814 18.0293C19.5875 18.0293 19.1872 18.4291 19.1872 18.9223V23.9984ZM21.7864 27.371C21.7864 28.3099 21.0215 29.0738 20.0814 29.0738C19.1412 29.0738 18.3763 28.3099 18.3763 27.371C18.3763 26.432 19.1412 25.6681 20.0814 25.6681C21.0215 25.6681 21.7864 26.432 21.7864 27.371Z" fill="white" stroke="white" stroke-width="0.4"/>
        <path d="M8.39226 25.8633C7.89839 25.8633 7.49805 26.2631 7.49805 26.7563C7.49805 27.2496 7.89839 27.6494 8.39226 27.6494H9.58461C10.0785 27.6494 10.4788 27.2496 10.4788 26.7563C10.4788 26.2631 10.0785 25.8633 9.58461 25.8633H8.39226Z" fill="white" stroke="white" stroke-width="0.4"/>
        <path d="M31.7702 27.6494C32.264 27.6494 32.6644 27.2496 32.6644 26.7563C32.6644 26.2631 32.264 25.8633 31.7702 25.8633H30.5778C30.0839 25.8633 29.6836 26.2631 29.6836 26.7563C29.6836 27.2496 30.0839 27.6494 30.5778 27.6494H31.7702Z" fill="white" stroke="white" stroke-width="0.4"/>
        <path d="M11.1818 17.8699C10.8326 18.2187 10.8326 18.7842 11.1818 19.133L12.025 19.975C12.3741 20.3238 12.9403 20.3238 13.2896 19.975C13.6388 19.6263 13.6388 19.0608 13.2896 18.712L12.4465 17.8699C12.0973 17.5212 11.5311 17.5212 11.1818 17.8699Z" fill="white" stroke="white" stroke-width="0.4"/>
        <path d="M26.8712 34.8009L27.7144 35.643C28.0636 35.9917 28.6298 35.9917 28.9791 35.643C29.3283 35.2943 29.3283 34.7288 28.9791 34.38L28.1359 33.5379C27.7867 33.1892 27.2205 33.1892 26.8712 33.5379C26.5221 33.8866 26.5221 34.4521 26.8712 34.8009Z" fill="white" stroke="white" stroke-width="0.4"/>
        <path d="M20.0817 17.1663C20.5756 17.1663 20.9759 16.7665 20.9759 16.2732V15.0825C20.9759 14.5893 20.5756 14.1895 20.0817 14.1895C19.5878 14.1895 19.1875 14.5893 19.1875 15.0825V16.2732C19.1875 16.7665 19.5878 17.1663 20.0817 17.1663Z" fill="white" stroke="white" stroke-width="0.4"/>
        <path d="M19.1875 37.2407V38.4314C19.1875 38.9247 19.5878 39.3245 20.0817 39.3245C20.5756 39.3245 20.9759 38.9247 20.9759 38.4314V37.2407C20.9759 36.7475 20.5756 36.3477 20.0817 36.3477C19.5878 36.3477 19.1875 36.7475 19.1875 37.2407Z" fill="white" stroke="white" stroke-width="0.4"/>
        <path d="M28.1359 19.974L28.9791 19.132C29.3283 18.7833 29.3283 18.2178 28.9791 17.869C28.6299 17.5202 28.0637 17.5202 27.7144 17.869L26.8713 18.711C26.5221 19.0598 26.5221 19.6252 26.8713 19.974C27.2204 20.3228 27.7867 20.3228 28.1359 19.974Z" fill="white" stroke="white" stroke-width="0.4"/>
        <path d="M12.025 33.5379L11.1818 34.38C10.8326 34.7287 10.8326 35.2942 11.1818 35.643C11.531 35.9917 12.0972 35.9917 12.4465 35.643L13.2896 34.8009C13.6388 34.4522 13.6388 33.8867 13.2896 33.5379C12.9403 33.1892 12.3741 33.1892 12.025 33.5379Z" fill="white" stroke="white" stroke-width="0.4"/>
        <path d="M14.8621 14.8604C15.356 14.8604 15.7563 14.4605 15.7563 13.9673C15.7563 13.474 15.356 13.0742 14.8621 13.0742H14.8599C14.366 13.0742 13.9668 13.474 13.9668 13.9673C13.9668 14.4605 14.3683 14.8604 14.8621 14.8604Z" fill="white" stroke="white" stroke-width="0.4"/>
    </symbol>
    <symbol id="icon-spray" viewBox="0 0 32 53">
        <path d="M24.4708 18.0223L18.6882 13.2098L17.709 2.54947C17.661 2.02633 17.2216 1.62598 16.6956 1.62598H8.55383C8.02778 1.62598 7.58843 2.02633 7.54039 2.54947L6.56115 13.2097L0.778487 18.0223C0.54543 18.2154 0.412109 18.5 0.412109 18.803V51.0227C0.412109 51.29 0.521005 51.5522 0.7103 51.7412C0.899595 51.9302 1.16217 52.0391 1.42982 52.0391H8.04498C8.60574 52.0391 9.06269 51.5827 9.06269 51.0227C9.06269 50.4626 8.60574 50.0063 8.04498 50.0063H2.44754V19.2787L7.90453 14.7374H17.3449L22.8018 19.2787V24.3424H12.6247C12.0626 24.3424 11.607 24.7975 11.607 25.3587V31.4571C11.607 31.8076 11.7877 32.1332 12.0853 32.319L15.6778 34.5614V42.6374C15.6778 43.1987 16.1336 43.6538 16.6956 43.6538H22.8018V50.0063H17.2044C16.6437 50.0063 16.1867 50.4626 16.1867 51.0227C16.1867 51.5827 16.6437 52.0391 17.2044 52.0391H23.8196C24.0872 52.0391 24.3498 51.9303 24.539 51.7412C24.7283 51.5522 24.8373 51.29 24.8373 51.0227V18.803C24.8373 18.5001 24.7039 18.2155 24.4708 18.0223ZM8.65143 12.7047L9.4824 3.65876H15.7669L16.598 12.7047H8.65143ZM17.7133 41.621V33.9981C17.7133 33.6476 17.5325 33.322 17.2349 33.1362L13.6424 30.8938V26.3751H22.8018V41.621H17.7133Z" fill="white"/>
        <path d="M12.6251 52.0386C13.1872 52.0386 13.6428 51.5835 13.6428 51.0222C13.6428 50.4609 13.1872 50.0059 12.6251 50.0059C12.0631 50.0059 11.6074 50.4609 11.6074 51.0222C11.6074 51.5835 12.0631 52.0386 12.6251 52.0386Z" fill="white"/>
        <path d="M12.6251 35.5234C12.063 35.5234 11.6074 35.9786 11.6074 36.5398V42.6382C11.6074 43.1994 12.063 43.6545 12.6251 43.6545C13.1872 43.6545 13.6428 43.1994 13.6428 42.6382V36.5398C13.6428 35.9786 13.1872 35.5234 12.6251 35.5234Z" fill="white"/>
        <path d="M29.7176 14.4135L28.7823 14.012C28.6541 13.9571 28.5197 13.9297 28.3813 13.9297C27.9732 13.9297 27.6069 14.1706 27.4461 14.5446C27.2243 15.059 27.4634 15.6585 27.9783 15.8802L28.9136 16.2816C29.0418 16.3365 29.1761 16.364 29.3145 16.364C29.7226 16.364 30.0899 16.1231 30.2507 15.7491C30.4716 15.2337 30.2325 14.6351 29.7176 14.4135Z" fill="white"/>
        <path d="M24.5755 12.2055L23.6402 11.804C23.513 11.7492 23.3777 11.7207 23.2394 11.7207C22.8323 11.7207 22.4649 11.9627 22.3041 12.3367C22.2491 12.4627 22.2216 12.5949 22.2207 12.7311C22.2186 13.1407 22.4599 13.5096 22.8364 13.6712L23.7716 14.0727C23.9 14.1275 24.0342 14.156 24.1726 14.156C24.5807 14.156 24.9481 13.914 25.1089 13.541C25.2158 13.291 25.2199 13.0145 25.1191 12.7625C25.0182 12.5104 24.8249 12.3131 24.5755 12.2055Z" fill="white"/>
        <path d="M28.3803 2.43433C28.5187 2.43433 28.6541 2.40678 28.7823 2.35098L29.7176 1.95051C30.2335 1.72893 30.4716 1.12924 30.2508 0.614934C30.09 0.240892 29.7227 0 29.3146 0C29.1771 0 29.0417 0.0274433 28.9136 0.08233L27.9783 0.483816C27.4634 0.705396 27.2243 1.30407 27.4462 1.81939C27.6069 2.19343 27.9732 2.43433 28.3803 2.43433Z" fill="white"/>
        <path d="M23.2395 4.64136C23.3778 4.64136 23.5131 4.61381 23.6403 4.55893L24.5756 4.15756C25.0906 3.93589 25.3297 3.33734 25.1089 2.82194C24.9481 2.44791 24.5807 2.20703 24.1726 2.20703C24.0342 2.20703 23.8998 2.23458 23.7716 2.28946L22.8364 2.69083C22.4599 2.85243 22.2187 3.22239 22.2207 3.63098C22.2217 3.76717 22.2491 3.90032 22.3041 4.02645C22.465 4.40048 22.8324 4.64136 23.2395 4.64136Z" fill="white"/>
        <path d="M30.4358 7.16602H29.4181C28.8573 7.16602 28.4004 7.62236 28.4004 8.18237C28.4004 8.74239 28.8573 9.19873 29.4181 9.19873H30.4358C30.9966 9.19873 31.4536 8.74239 31.4536 8.18237C31.4536 7.62236 30.9966 7.16602 30.4358 7.16602Z" fill="white"/>
        <path d="M24.8362 7.16602H23.8185C23.2577 7.16602 22.8008 7.62236 22.8008 8.18237C22.8008 8.74239 23.2577 9.19873 23.8185 9.19873H24.8362C25.397 9.19873 25.8539 8.74239 25.8539 8.18237C25.8539 7.62236 25.397 7.16602 24.8362 7.16602Z" fill="white"/>
        <path d="M12.6251 9.19873C13.1872 9.19873 13.6428 8.74369 13.6428 8.18237C13.6428 7.62105 13.1872 7.16602 12.6251 7.16602C12.0631 7.16602 11.6074 7.62105 11.6074 8.18237C11.6074 8.74369 12.0631 9.19873 12.6251 9.19873Z" fill="white"/>
    </symbol>
    <symbol id="icon-interval" viewBox="0 0 44 49">
        <path d="M43.2305 22.0877C43.2305 16.4549 41.0341 11.1593 37.046 7.17642C33.0579 3.19352 27.7554 1 22.1152 1C16.3837 1 11.0207 3.25474 7.01385 7.34884C6.74939 7.61906 6.75432 8.05222 7.02499 8.31642C7.29547 8.58053 7.72929 8.57569 7.99383 8.30529C11.7406 4.47684 16.7557 2.36844 22.1152 2.36844C33.0027 2.36844 41.8602 11.2144 41.8602 22.0877C41.8602 32.961 33.0027 41.8069 22.1152 41.8069C11.2278 41.8069 2.37023 32.9609 2.37023 22.0877C2.37023 17.811 3.7179 13.7428 6.26771 10.3229C6.49371 10.0199 6.43086 9.59117 6.12731 9.36547C5.82385 9.13986 5.3946 9.20253 5.1686 9.50569C2.44148 13.1636 1 17.5144 1 22.0877C1 27.7205 3.19639 33.0161 7.18448 36.999C10.0974 39.9081 13.712 41.8612 17.6467 42.7036V46.2696C17.6467 47.0636 18.2936 47.7095 19.0885 47.7095H25.1419C25.9369 47.7095 26.5836 47.0636 26.5836 46.2696V42.7036C30.5184 41.8612 34.133 39.9081 37.0459 36.999C41.0341 33.0161 43.2305 27.7205 43.2305 22.0877ZM25.2135 46.2696C25.2135 46.309 25.1814 46.341 25.142 46.341H19.0886C19.0491 46.341 19.0171 46.3089 19.0171 46.2696V42.951C20.034 43.0995 21.0688 43.1754 22.1153 43.1754C23.1618 43.1754 24.1965 43.0995 25.2136 42.951V46.2696H25.2135Z" fill="white" stroke="white" stroke-width="0.6"/>
        <path d="M25.7406 23.7084C25.8637 23.9178 26.0885 24.0464 26.3315 24.0464H29.0674C29.4442 24.0464 29.7503 23.7425 29.7525 23.3662C29.7639 21.3896 29.7701 19.7181 29.7704 18.5321C29.7705 18.2232 29.5632 17.9525 29.2647 17.8716C28.9663 17.7907 28.6504 17.9195 28.4941 18.1861C27.7833 19.3982 26.8029 21.1179 25.7336 23.0284C25.615 23.2402 25.6177 23.4989 25.7406 23.7084ZM28.3936 21.102C28.3915 21.5965 28.389 22.1234 28.386 22.6779H27.5011C27.8114 22.1269 28.1106 21.5987 28.3936 21.102Z" fill="white" stroke="white" stroke-width="0.6"/>
        <path d="M23.7597 27.0684H28.3568C28.352 27.7009 28.3471 28.3072 28.3422 28.8686C28.3371 29.455 28.5611 30.0083 28.9727 30.4266C29.3843 30.8448 29.9344 31.0779 30.5138 31.0828L30.5409 31.083C31.7426 31.0829 32.7286 30.1064 32.7389 28.9063C32.7422 28.528 32.7478 27.8613 32.7542 27.0239C33.7554 26.8191 34.5109 25.9325 34.5109 24.8728C34.5109 23.8233 33.7698 22.9435 32.7827 22.7278C32.8156 16.6478 32.7781 16.197 32.7655 16.0455C32.6523 14.6901 31.8171 13.5787 30.6377 13.214C29.4574 12.8488 28.2213 13.2818 27.331 14.3725C27.1967 14.5371 26.9318 14.9002 26.185 16.1488C25.991 16.4732 26.0971 16.8933 26.4219 17.0871C26.7467 17.2809 27.1675 17.175 27.3614 16.8505C28.0418 15.7129 28.2999 15.3513 28.3932 15.237C28.9254 14.585 29.5957 14.324 30.2323 14.5211C30.8752 14.7199 31.3335 15.3629 31.4 16.1591C31.4178 16.3729 31.4427 17.5922 31.4091 23.3575C31.408 23.5397 31.4797 23.7147 31.6083 23.8438C31.7369 23.973 31.9117 24.0456 32.0942 24.0456H32.3125C32.7691 24.0456 33.1406 24.4167 33.1406 24.8728C33.1406 25.3289 32.7691 25.7 32.3125 25.7H32.074C31.6975 25.7 31.3917 26.0033 31.3889 26.3791C31.3805 27.5117 31.3728 28.4254 31.3688 28.8945C31.3648 29.3466 30.9934 29.7145 30.5334 29.7145C30.3121 29.7126 30.105 29.6248 29.9499 29.4671C29.7948 29.3096 29.7104 29.1011 29.7123 28.8803C29.7188 28.1171 29.7257 27.2712 29.7322 26.3892C29.7336 26.2068 29.6619 26.0315 29.5333 25.9021C29.4047 25.7727 29.2297 25.6999 29.0471 25.6999H23.7596C23.4679 25.6999 23.1946 25.5441 23.0463 25.2934C22.8981 25.0425 22.8935 24.7283 23.0344 24.4733C23.6323 23.3908 24.804 21.2798 25.933 19.3042C26.1206 18.9759 26.0062 18.5581 25.6776 18.3708C25.3488 18.1834 24.9305 18.2977 24.743 18.6259C23.6098 20.609 22.4344 22.7266 21.8347 23.8123C21.4607 24.4891 21.4729 25.3233 21.8665 25.9892C22.2602 26.6549 22.9856 27.0684 23.7597 27.0684Z" fill="white" stroke="white" stroke-width="0.6"/>
        <path d="M11.4941 20.1922C12.6832 20.4246 13.8412 19.6483 14.0747 18.4608C14.1863 17.8932 14.6896 17.4812 15.2715 17.4812C15.9094 17.4812 16.4336 17.9661 16.4869 18.5944L16.4591 18.8119C16.3069 19.3828 15.9515 20.0691 15.4023 20.8528C13.2942 23.861 12.0374 25.5046 11.3621 26.3875C10.4995 27.5156 9.92957 28.2608 10.2913 29.4353C10.5087 30.1414 11.0416 30.6822 11.7533 30.9192C12.0455 31.0164 12.2565 31.0867 14.9525 31.0867C16.0379 31.0867 17.4547 31.0755 19.2836 31.0526C20.4957 31.0373 21.4694 30.04 21.4542 28.8296C21.4392 27.6341 20.4532 26.6615 19.2563 26.6615L19.2283 26.6616C18.3658 26.6724 17.4686 26.6808 16.6318 26.686C17.3727 25.6759 18.156 24.5813 19.0046 23.3706C19.9086 22.0805 20.501 20.8494 20.7653 19.7114C20.7819 19.6399 20.7951 19.5666 20.8044 19.4935L20.8705 18.9774C20.8821 18.8856 20.8882 18.792 20.8882 18.6992C20.8882 15.6062 18.3685 13.0898 15.2715 13.0898C12.5937 13.0898 10.2758 14.9926 9.76021 17.6144C9.52654 18.8025 10.3043 19.9587 11.4941 20.1922ZM11.1048 17.8782C11.4946 15.8966 13.2469 14.4584 15.2715 14.4584C17.6131 14.4584 19.518 16.3609 19.518 18.6993C19.518 18.7342 19.5158 18.7695 19.5113 18.804L19.4452 19.32C19.4418 19.3477 19.4367 19.3753 19.4304 19.4023C19.2061 20.369 18.685 21.4401 17.8819 22.5861C16.7242 24.238 15.6898 25.6708 14.7194 26.9664C14.5639 27.1739 14.5393 27.4514 14.6558 27.6832C14.7719 27.9144 15.009 28.0604 15.2681 28.0604H15.2693C16.4335 28.0582 17.8826 28.0472 19.2463 28.03L19.2562 28.0299C19.7069 28.0299 20.0784 28.3963 20.0839 28.8467C20.0897 29.3028 19.7228 29.6784 19.2662 29.6842C17.4432 29.707 16.0321 29.7182 14.9525 29.7182C12.6699 29.7182 12.3279 29.668 12.1865 29.621C11.8958 29.5242 11.6878 29.3154 11.6009 29.0332C11.4579 28.5689 11.5982 28.3333 12.4511 27.2182C13.1323 26.3273 14.4004 24.669 16.5248 21.6375C17.1819 20.7 17.61 19.8492 17.7973 19.1093C17.8041 19.0826 17.8092 19.0556 17.8127 19.0284L17.8541 18.7038C17.8591 18.6653 17.8607 18.6265 17.8591 18.5878C17.7996 17.2 16.6629 16.1128 15.2714 16.1128C14.0364 16.1128 12.9676 16.9895 12.7301 18.1972C12.6422 18.6445 12.2057 18.9369 11.7577 18.8494C11.5407 18.8068 11.3531 18.6823 11.2298 18.499C11.1066 18.3154 11.0621 18.095 11.1048 17.8782Z" fill="white" stroke="white" stroke-width="0.6"/>
    </symbol>
</svg>